<?xml version="1.0" encoding="utf-8"?>
<!-- Generator: Adobe Illustrator 22.0.1, SVG Export Plug-In . SVG Version: 6.00 Build 0)  -->
<svg version="1.1" id="Layer_1" xmlns="http://www.w3.org/2000/svg" xmlns:xlink="http://www.w3.org/1999/xlink" x="0px" y="0px"
	 viewBox="0 0 255.6 49.1" style="enable-background:new 0 0 255.6 49.1;" xml:space="preserve">
<style type="text/css">
	.st0{fill:#FFFFFF;}
</style>
<path id="C1" class="st0" d="M111.2,17c0,0-0.4-5.9-5.1-9c0,0-3.3-2.4-8-2.4c0,0-5.4-0.2-9,3.3c0,0-4.3,3.4-4.1,9.9
	c0,0-0.2,6.7,5.5,10.4c0,0,2,1.4,4.8,2l-3.2-4h7.8l3,3.4c0,0,7.8-2.4,8.3-10.7H102c0,0-0.6,2.8-3.6,2.8c0,0-4.3,0.1-3.8-4.9
	c0,0,0.1-3.5,3.7-3.6c0,0,2.9-0.1,3.6,2.7L111.2,17z"/>
<path id="C2" class="st0" d="M167.1,17c0,0-0.3-5.8-5.1-8.9c0,0-3.3-2.6-7.9-2.5c0,0-5.4-0.2-9,3.3c0,0-4.3,3.4-4.1,9.9
	c0,0-0.2,6.8,5.5,10.5c0,0,2.4,1.5,5,1.9l-3.3-4h7.9l2.8,3.4c0,0,7.6-2.3,8.1-10.6h-9.2c0,0-0.7,2.8-3.7,2.8c0,0-4,0-3.6-5
	c0,0,0.1-3.5,3.7-3.6c0,0,2.7,0,3.6,2.9L167.1,17z"/>
<polygon id="_x2F_" class="st0" points="125.2,0.1 121.6,4.4 129.5,4.5 133,0.1 "/>
<path class="st0" d="M139.4,17.8C138.6,5.1,126,5.6,126,5.6c-13.2,0.4-13.3,12.3-13.3,12.3c-0.3,13.5,13.1,13.5,13.1,13.5
	C129.3,31.7,140,29.1,139.4,17.8z M133.5,24.6c0,0,0,0.4-1,0.3c0,0,1.9,1,0.6,1.3c0,0-0.8,0.2-2-0.5c0,0,0.1,1.1-0.6,0.8
	c0,0-0.7-0.4-0.5-1.3c0,0-6.1,0.4-7.6-0.1c0,0,0,1.3-0.7,1.3c0,0-0.4,0-0.3-0.8c0,0-1.3,1-2.3,0.4c0,0-0.6-0.5,0.9-1.1
	c0,0-1.5-0.2-0.9-0.5c0,0,0.8-0.3,1.6-0.3c0,0-4.3-5.7-2.8-7.7c0,0,0.4-0.6,1.3-0.1c0,0,0.4-1.1,0.9-1.7c0,0-2.1-1.7,0.1-3.3
	c0,0,1.9-1.2,3.5,1.1c0,0,2.8-0.6,4.4,0c0,0,1.2-2.1,3.4-0.9c0,0,2,0.9,0.4,3.2c0,0,0.8,1.2,1,1.8c0,0,1-0.6,1.4-0.3
	c0,0,1.9,1.2-2.9,7.9C131.5,24.1,133.3,23.9,133.5,24.6z"/>
<path id="S" class="st0" d="M83.1,37.2h6.2c0,0,0-5.3-6.8-5.5c0,0-7.2-0.4-8.3,4.6c-0.1,0.3-1.3,5.7,7.5,6c0,0,1.3,0,1.4,0.8
	c0,0,0.1,0.5-0.6,0.8c-1,0.4-2.1,0-2.2-0.8L74,43c0,0-0.4,7.1,10.1,5.8c0,0,5.5-0.7,5.4-5.7c-0.1-3.7-4.2-4.6-7-4.7
	c0,0-2.2,0.1-2-1.1C80.8,36.2,82.7,36.2,83.1,37.2z"/>
<polygon id="A" class="st0" points="96.1,32 103.3,32 109.6,47.9 109.6,48.5 89.8,48.5 89.8,47.7 "/>
<polygon id="I" class="st0" points="110.4,32.2 122,32.2 122,36.8 119.6,36.8 119.6,44 122,44 122,48.5 110.4,48.5 110.4,43.9 
	113.1,43.9 113.1,36.8 110.4,36.8 "/>
<polygon id="N" class="st0" points="171.1,32.2 175.5,38.5 175.5,32.2 181.6,32.2 181.6,48.5 176.2,48.5 171.7,42.1 171.7,48.4 
	165.8,48.4 165.8,32.2 "/>
<path id="O_1_" class="st0" d="M164.8,40.4c0,5.4-4.1,8.4-8.9,8.4c-5.2-0.1-9-3.9-8.8-8.4c0.3-5.9,4.1-8.6,9-8.6
	S164.8,35.4,164.8,40.4z"/>
<path id="G" class="st0" d="M139.8,38.8h6.2c0,0-1.1-7.1-9-7c-6.8,0.1-8.5,6.5-8.3,9.3c0.4,4.9,4.2,8.1,8.7,7.9
	c7.6-0.2,9.1-6.8,8.7-9.2h-9v2.7h2.5c0,0-0.5,1.3-2.5,0.9c-1.1-0.2-2.6-1.4-2-3.9C135.5,38,137.8,36.3,139.8,38.8z"/>
</svg>
